<?xml version="1.0" encoding="UTF-8"?>
<svg width="40px" height="40px" viewBox="0 0 40 40" version="1.1" xmlns="http://www.w3.org/2000/svg" xmlns:xlink="http://www.w3.org/1999/xlink">
    <title>EC728BDE-C121-4623-97E7-96FDA4704727@1.5x</title>
    <defs>
        <filter color-interpolation-filters="auto" id="filter-1">
            <feColorMatrix in="SourceGraphic" type="matrix" values="0 0 0 0 1.000000 0 0 0 0 1.000000 0 0 0 0 1.000000 0 0 0 1.000000 0"></feColorMatrix>
        </filter>
    </defs>
    <g id="Page-1" stroke="none" stroke-width="1" fill="none" fill-rule="evenodd">
        <g id="Details-v3" transform="translate(-964.000000, -1510.000000)">
            <g id="Group-2" transform="translate(203.000000, 800.000000)">
                <g id="Social--Copy" transform="translate(616.000000, 710.000000)">
                    <g id="Group-3-Copy" transform="translate(144.999997, 0.000000)">
                        <path d="M20,40 C8.95430452,40 0,31.0456948 0,20 C0,8.95430523 8.95430452,0 20,0 C31.0456923,0 40,8.95430523 40,20 C40,31.0456948 31.0456923,40 20,40 Z" id="Vector-Copy" fill="#7047EB"></path>
                        <g filter="url(#filter-1)" id="icons8-link">
                            <g transform="translate(10.000089, 10.000089)">
                                <path d="M15.7157135,4.23044229e-16 C14.6179485,4.23044229e-16 13.5198339,0.418345085 12.6839178,1.25402301 L10.3023905,3.6355504 C9.11543728,4.8225036 8.77618872,6.53651832 9.27535684,8.03021224 L10.9861489,6.31941972 C11.0575947,5.83025402 11.2736368,5.35840678 11.6494419,4.98260177 L14.0309691,2.60107439 C14.495367,2.13715287 15.1060425,1.90429156 15.7157135,1.90429156 C16.3253845,1.90429156 16.935606,2.13667652 17.3995276,2.60107439 C18.3278469,3.52987012 18.3278469,5.04038334 17.3995276,5.96870268 L15.0180003,8.35022997 C14.6421953,8.72603497 14.1708243,8.94160034 13.6811823,9.01352247 L11.9694596,10.7252452 C12.411471,10.8728999 12.871716,10.9513045 13.333256,10.9513045 C14.43114,10.9513045 15.5291356,10.5331974 16.3650516,9.69728134 L18.7465789,7.31575405 C20.4184111,5.6443982 20.4179348,2.92537896 18.7465789,1.25402301 C17.9106629,0.41858319 16.8134785,4.23044229e-16 15.7157135,4.23044229e-16 Z M12.8392753,6.18080769 C12.5917883,6.188182 12.3568937,6.29161574 12.1843553,6.46919588 L6.46868977,12.1848614 C6.21982894,12.423792 6.11958108,12.7785923 6.20660859,13.1124272 C6.2936361,13.4462622 6.55433987,13.7069659 6.8881748,13.7939935 C7.22200973,13.881021 7.57681007,13.7807731 7.81574067,13.5319123 L13.5314062,7.81624678 C13.8131505,7.54237934 13.8978645,7.12363597 13.7447284,6.76178991 C13.5915922,6.39994384 13.2320209,6.16922559 12.8392753,6.18080769 Z M6.87987523,9.05910681 C5.71193709,8.99967246 4.52561642,9.41268168 3.63504429,10.3028966 L1.25351691,12.6844239 C-0.417838945,14.3557797 -0.417838993,17.0757292 1.25351691,18.747085 C2.08943299,19.5825248 3.1869747,20.000178 4.28438247,20.000178 C5.38179025,20.000178 6.47933187,19.5820709 7.31524795,18.7461548 L9.69677524,16.3646275 C10.8837284,15.1776743 11.2239072,13.4636596 10.7247391,11.9699657 L9.01301636,13.6816884 C8.94157055,14.1708541 8.72552887,14.6427014 8.34972386,15.0185064 L5.96819657,17.4000337 C5.03987723,18.3288293 3.52888771,18.3288293 2.60056828,17.4000337 C1.67224894,16.471238 1.67224894,14.9607248 2.60056828,14.0324055 L4.98209567,11.6508782 C5.35790067,11.2750732 5.82974791,11.0585771 6.31891362,10.986655 L8.02970613,9.27586294 C7.65628265,9.15107091 7.26918778,9.07891778 6.87987523,9.05910681 Z" id="Shape" fill="#000000" fill-rule="nonzero"></path>
                            </g>
                        </g>
                    </g>
                </g>
            </g>
        </g>
    </g>
</svg>