<?xml version="1.0" encoding="UTF-8"?>
<svg width="41px" height="40px" viewBox="0 0 41 40" version="1.1" xmlns="http://www.w3.org/2000/svg" xmlns:xlink="http://www.w3.org/1999/xlink">
    <title>017F491A-1D8A-4538-8E03-FDC1DB9BACFA@1.5x</title>
    <g id="Page-1" stroke="none" stroke-width="1" fill="none" fill-rule="evenodd">
        <g id="Details-v3" transform="translate(-867.000000, -1510.000000)">
            <g id="Group-2" transform="translate(203.000000, 800.000000)">
                <g id="Social--Copy" transform="translate(616.000000, 710.000000)">
                    <g id="Group-Copy-2" transform="translate(48.333333, 0.000000)">
                        <g id="Group" fill="#DD4B39">
                            <path d="M20,40 C8.95430523,40 0,31.0456948 0,20 C0,8.95430523 8.95430523,0 20,0 C31.0456948,0 40,8.95430523 40,20 C40,31.0456948 31.0456948,40 20,40 Z" id="XMLID-30"></path>
                        </g>
                        <g id="Group" transform="translate(11.666667, 11.666667)" fill="#FFFFFF" fill-rule="nonzero">
                            <path d="M8.06938226,0.0261589511 C10.3066689,-0.164663045 12.483289,0.704147592 14.1764205,2.12115723 C13.4818873,2.88481286 12.7752201,3.63964354 12.0203887,4.34631 C10.5298448,3.44073275 8.73523624,2.75061145 6.99320441,3.36352143 C4.18345179,4.16357671 2.48186414,7.48108667 3.52164174,10.2298058 C4.38273052,13.1005923 7.87451528,14.6760686 10.611101,13.470103 C12.0281105,12.962715 12.9623661,11.6552718 13.3723208,10.2503954 C11.7483119,10.2180402 10.1239347,10.2382612 8.49992578,10.1934052 C8.49588138,9.227162 8.4918378,8.26459535 8.4958822,7.29835216 C11.2041572,7.29430776 13.9164769,7.28621932 16.6287962,7.3104857 C16.7953518,9.67792861 16.446062,12.2115583 14.9069854,14.1116896 C12.7994872,16.8240091 8.90583685,17.620021 5.73833914,16.5559769 C2.37671044,15.4518566 -0.0679438551,12.0652269 0.00522295448,8.51645227 C-0.16133265,4.13122301 3.67974134,0.0787361131 8.06938226,0.0261589511 Z" id="Vector"></path>
                        </g>
                    </g>
                </g>
            </g>
        </g>
    </g>
</svg>