<?xml version="1.0" encoding="UTF-8"?>
<svg width="40px" height="40px" viewBox="0 0 40 40" version="1.1" xmlns="http://www.w3.org/2000/svg" xmlns:xlink="http://www.w3.org/1999/xlink">
    <title>2B8BB808-3945-441E-971F-DE80C6272AEF@1.5x</title>
    <g id="Page-1" stroke="none" stroke-width="1" fill="none" fill-rule="evenodd">
        <g id="Details-v3" transform="translate(-819.000000, -1510.000000)">
            <g id="Group-2" transform="translate(203.000000, 800.000000)">
                <g id="Group-Copy" transform="translate(616.000000, 710.000000)">
                    <path d="M20,40 C8.95430523,40 0,31.0456948 0,20 C0,8.95430523 8.95430523,0 20,0 C31.0456948,0 40,8.95430523 40,20 C40,31.0456948 31.0456948,40 20,40 Z" id="Vector" fill="#3B5998"></path>
                    <path d="M21.3689888,20.3966017 L21.3689888,30.8333333 L17.052796,30.8333333 L17.052796,20.3966017 L15,20.3966017 L15,16.7287192 L17.052796,16.7287192 L17.052796,14.3551838 C17.052796,12.657849 17.8590578,10 21.4074089,10 L24.6045669,10.0133758 L24.6045669,13.5736806 L22.2848204,13.5736806 C21.9043147,13.5736806 21.3692733,13.7637913 21.3692733,14.5734689 L21.3692733,16.7321347 L24.5948916,16.7321347 L24.2177997,20.3966017 L21.3689888,20.3966017 Z" id="Vector" fill="#FFFFFF" fill-rule="nonzero"></path>
                </g>
            </g>
        </g>
    </g>
</svg>