<?xml version="1.0" encoding="UTF-8"?>
<svg width="28px" height="28px" viewBox="0 0 28 28" version="1.1" xmlns="http://www.w3.org/2000/svg" xmlns:xlink="http://www.w3.org/1999/xlink">
    <title>BF48AB1C-5953-41CD-90DC-DE067F6449F1</title>
    <g id="Page-1" stroke="none" stroke-width="1" fill="none" fill-rule="evenodd">
        <g id="Landing" transform="translate(-1128.000000, -2791.000000)" fill="#DD2A7B" fill-rule="nonzero">
            <g id="Group-11" transform="translate(0.000000, 2580.000000)">
                <g id="Group-3-Copy-4" transform="translate(1115.000000, 201.000000)">
                    <g id="3357711" transform="translate(13.000000, 10.000000)">
                        <path d="M21.3552022,5 C19.1618499,5.06732234 19.1624271,8.22656054 21.3552022,8.293305 C23.5485545,8.22598266 23.5479773,5.06674447 21.3552022,5 Z M14.0386407,6.90640695 C10.1512123,6.90640695 7,10.0696903 7,13.9717857 C7.3708497,23.3440383 20.7075861,23.3414378 21.0769928,13.9717857 C21.0772814,10.0696903 17.9257805,6.90640695 14.0386407,6.90640695 Z M14.0386407,18.5580842 C11.5154198,18.5580842 9.46983013,16.5046083 9.46983013,13.9717857 C9.71052169,7.8882152 18.3679141,7.88965988 18.6077399,13.9717857 C18.6074513,16.5048972 16.5618616,18.5580842 14.0386407,18.5580842 Z" id="Shape"></path>
                        <path d="M27.9138988,8.22844709 C27.8101522,3.31610077 24.6847837,0.188963641 19.7712588,0.0861011662 C18.5914352,-0.0276664993 9.40926533,-0.0297296435 8.22855748,0.0861011662 C3.31621155,0.189847846 0.18907468,3.31521656 0.0862122139,8.22874183 C-0.0275554424,9.40679716 -0.0299133213,18.5919151 0.0862122139,19.7714441 C0.177874756,24.6678748 3.33153777,27.8224222 8.22855748,27.91379 C9.40838113,28.0287367 18.590551,28.0287367 19.7712588,27.91379 C21.2611436,27.8457063 22.278863,27.6090342 23.169257,27.2630154 C26.289615,26.0165816 27.8142785,23.2440105 27.9138988,19.7711494 C28.0276665,18.5913256 28.0297296,9.40915504 27.9138988,8.22844709 Z M19.6563122,25.3941015 C18.4953516,25.5049218 9.5053489,25.5066902 8.34350408,25.3941015 C6.97888167,25.3319125 6.2376235,25.1037877 5.74423734,24.91221 C1.48561333,22.9368968 2.80602551,18.9423549 2.60531107,13.4594018 C2.60973209,12.1858524 2.60265846,9.61723787 2.6056058,8.34368843 C2.77566782,4.54691365 4.56382422,2.78911479 8.34350408,2.6057897 C9.50593837,2.49496938 18.4935832,2.49320097 19.6563122,2.6057897 C23.4542657,2.77585172 25.210296,4.56400827 25.3942105,8.3433937 C25.4693679,9.25088241 25.5238939,14.2047864 25.3942105,16.7118013 C25.5342096,21.4204858 25.3196426,25.1179349 19.6563122,25.3941015 Z" id="Shape"></path>
                    </g>
                </g>
            </g>
        </g>
    </g>
</svg>