<?xml version="1.0" encoding="UTF-8"?>
<svg width="41px" height="40px" viewBox="0 0 41 40" version="1.1" xmlns="http://www.w3.org/2000/svg" xmlns:xlink="http://www.w3.org/1999/xlink">
    <title>C98444F3-9794-4FD9-8DEA-1E118BBB0B95@1.5x</title>
    <g id="Page-1" stroke="none" stroke-width="1" fill="none" fill-rule="evenodd">
        <g id="Details-v3" transform="translate(-915.000000, -1510.000000)">
            <g id="Group-2" transform="translate(203.000000, 800.000000)">
                <g id="Social--Copy" transform="translate(616.000000, 710.000000)">
                    <g id="Group-Copy-3" transform="translate(96.666667, 0.000000)">
                        <path d="M20,40 C8.95430452,40 0,31.0456948 0,20 C0,8.95430523 8.95430452,0 20,0 C31.0456923,0 40,8.95430523 40,20 C40,31.0456948 31.0456923,40 20,40 Z" id="Vector" fill="#00ACED"></path>
                        <g id="Group" transform="translate(8.948851, 12.131659)" fill="#FFFFFF" fill-rule="nonzero">
                            <path d="M20.5554566,2.99368898 C21.5426576,2.40222411 22.3002587,1.46636204 22.6578472,0.349388359 C21.7341066,0.897357887 20.710541,1.29487725 19.6220887,1.50914511 C18.7500433,0.580413372 17.5075745,0 16.1317679,0 C13.4921018,0 11.3512067,2.14089621 11.3512067,4.78056207 C11.3512067,5.15526344 11.3936321,5.51998219 11.4756315,5.87008375 C7.50258441,5.67078967 3.97982077,3.76769134 1.62180457,0.874540547 C1.2103817,1.58044798 0.974366187,2.40222423 0.974366187,3.27819118 C0.974366187,4.93636059 1.81895894,6.40022692 3.10100103,7.25729837 C2.31772891,7.23269857 1.58009195,7.01771872 0.935862212,6.65870419 C0.935505693,6.67902577 0.935505209,6.6993467 0.935505209,6.71931175 C0.935505209,9.03561513 2.58404948,10.9675921 4.77058009,11.4064669 C4.36985282,11.5162747 3.94666428,11.5743848 3.51135467,11.5743848 C3.20260927,11.5743848 2.90349031,11.5447943 2.61185782,11.4891773 C3.22007911,13.3879971 4.98520475,14.7702222 7.07761438,14.8090828 C5.4411924,16.0914812 3.38015552,16.8555005 1.13979054,16.8555005 C0.754750076,16.8555005 0.373275346,16.8330386 0,16.7884737 C2.1145139,18.1453846 4.62797146,18.9365006 7.32753287,18.9365006 C16.1207158,18.9365006 20.9294435,11.6521081 20.9294435,5.33423643 C20.9294435,5.12709896 20.9248083,4.92067409 20.9155388,4.71603224 C21.8503314,4.04221152 22.6607008,3.20047085 23.3013654,2.24179156 C22.4442938,2.6218407 21.5223359,2.87888989 20.5554566,2.99368898 Z" id="Vector"></path>
                        </g>
                    </g>
                </g>
            </g>
        </g>
    </g>
</svg>